<svg id="Layer_1" data-name="Layer 1" xmlns="http://www.w3.org/2000/svg" xmlns:xlink="http://www.w3.org/1999/xlink" viewBox="0 0 100 100"><defs><style>.cls-1{fill:url(#linear-gradient);}.cls-2{fill:none;}</style><linearGradient id="linear-gradient" x1="1738.21" y1="361.77" x2="1738.21" y2="289.77" gradientUnits="userSpaceOnUse"><stop offset="0" stop-color="#d45800"/><stop offset="0.32" stop-color="#df6605"/><stop offset="0.93" stop-color="#fb8c13"/><stop offset="1" stop-color="#ff9115"/></linearGradient></defs><title>delete_btn</title><path class="cls-1" d="M1746.71,294.77v-3a2,2,0,0,0-2-2h-13a2,2,0,0,0-2,2v3a2,2,0,0,1-2,2h-13a2,2,0,0,0-2,2v5a2,2,0,0,0,2,2h1a2,2,0,0,1,2,2v52a2,2,0,0,0,2,2h37a2,2,0,0,0,2-2v-52a2,2,0,0,1,2-2h1a2,2,0,0,0,2-2v-5a2,2,0,0,0-2-2h-13A2,2,0,0,1,1746.71,294.77Z" transform="translate(-1688.21 -275.77)"/><rect class="cls-2" width="100" height="100"/></svg>