<svg id="Layer_1" data-name="Layer 1" xmlns="http://www.w3.org/2000/svg" xmlns:xlink="http://www.w3.org/1999/xlink" viewBox="0 0 100 100"><defs><style>.cls-1{fill:url(#linear-gradient);}.cls-2{fill:none;}</style><linearGradient id="linear-gradient" x1="407.56" y1="363.76" x2="407.56" y2="287.77" gradientTransform="matrix(-1, 0, 0, 1, 1046.55, 0)" gradientUnits="userSpaceOnUse"><stop offset="0" stop-color="#d45800"/><stop offset="0.32" stop-color="#df6605"/><stop offset="0.93" stop-color="#fb8c13"/><stop offset="1" stop-color="#ff9115"/></linearGradient></defs><title>previous_btn</title><path class="cls-1" d="M598.58,324.35l36-36a2,2,0,0,1,3.41,1.41v11.71a2,2,0,0,0,2,2h38a2,2,0,0,1,2,2v44a2,2,0,0,1-2,2H640a2,2,0,0,0-2,2v8.27a2,2,0,0,1-3.41,1.41l-36-36A2,2,0,0,1,598.58,324.35Z" transform="translate(-589.99 -275.77)"/><rect class="cls-2" x="589.99" y="275.77" width="100" height="100" transform="translate(689.99 375.77) rotate(-180)"/></svg>