<svg id="Layer_1" data-name="Layer 1" xmlns="http://www.w3.org/2000/svg" xmlns:xlink="http://www.w3.org/1999/xlink" viewBox="0 0 100 100"><defs><style>.cls-1{fill:url(#linear-gradient);}.cls-2{fill:none;}</style><linearGradient id="linear-gradient" x1="90.88" y1="361.57" x2="90.88" y2="283.39" gradientUnits="userSpaceOnUse"><stop offset="0" stop-color="#d45800"/><stop offset="0.32" stop-color="#df6605"/><stop offset="0.93" stop-color="#fb8c13"/><stop offset="1" stop-color="#ff9115"/></linearGradient></defs><title>rotate_cw_btn</title><path class="cls-1" d="M114.4,325.55a2,2,0,0,0-2,1.82,21.27,21.27,0,0,1-21.24,19.2c-12,0-21.9-9.18-21.9-20.91a21.25,21.25,0,0,1,14.07-19.81A2,2,0,0,1,86,307.74v0.64a2,2,0,0,0,3,1.73l19.91-11.49a2,2,0,0,0,0-3.46L89,283.66a2,2,0,0,0-3,1.73v2.88a2,2,0,0,1-1.65,2,35.75,35.75,0,0,0-29.94,35.43c0,20.14,16.2,35.91,36.57,35.91a36.35,36.35,0,0,0,36.32-33.88,2,2,0,0,0-2-2.13Z" transform="translate(-40.88 -275.77)"/><rect class="cls-2" width="100" height="100"/></svg>