<svg id="Layer_1" data-name="Layer 1" xmlns="http://www.w3.org/2000/svg" xmlns:xlink="http://www.w3.org/1999/xlink" viewBox="0 0 100 100"><defs><style>.cls-1{fill:url(#linear-gradient);}.cls-2{fill:none;}</style><linearGradient id="linear-gradient" x1="273.67" y1="361.57" x2="273.67" y2="283.39" gradientUnits="userSpaceOnUse"><stop offset="0" stop-color="#d45800"/><stop offset="0.32" stop-color="#df6605"/><stop offset="0.93" stop-color="#fb8c13"/><stop offset="1" stop-color="#ff9115"/></linearGradient></defs><title>rotate_ccw_btn</title><path class="cls-1" d="M251,325.55a2,2,0,0,1,2,1.82,21.27,21.27,0,0,0,21.24,19.2c12,0,20.49-9.18,20.49-20.91,0-9.46-6.77-17.26-15.54-19.92a2,2,0,0,0-2.62,1.91v0.73a2,2,0,0,1-3,1.73l-19.91-11.49a2,2,0,0,1,0-3.46l19.91-11.49a2,2,0,0,1,3,1.73v2.88a2,2,0,0,0,1.65,2c17.26,2.82,31.35,17.63,31.35,35.43,0,20.14-15.5,35.91-35.87,35.91a36,36,0,0,1-36-33.88,2,2,0,0,1,2-2.13Z" transform="translate(-223.91 -275.77)"/><rect class="cls-2" width="100" height="100"/></svg>