<svg id="Layer_1" data-name="Layer 1" xmlns="http://www.w3.org/2000/svg" xmlns:xlink="http://www.w3.org/1999/xlink" viewBox="0 0 100 100"><defs><style>.cls-1{fill:url(#linear-gradient);}.cls-2{fill:none;}</style><linearGradient id="linear-gradient" x1="823.03" y1="361.26" x2="823.03" y2="290.28" gradientUnits="userSpaceOnUse"><stop offset="0" stop-color="#d45800"/><stop offset="0.32" stop-color="#df6605"/><stop offset="0.93" stop-color="#fb8c13"/><stop offset="1" stop-color="#ff9115"/></linearGradient></defs><title>zoom_in_btn</title><path id="zoom_in" data-name="zoom in" class="cls-1" d="M825.33,290.35a35.49,35.49,0,1,0,33.11,33.11A35.5,35.5,0,0,0,825.33,290.35ZM839,333.48h-8a2,2,0,0,0-2,2v8a2,2,0,0,1-2,2h-8a2,2,0,0,1-2-2v-8a2,2,0,0,0-2-2h-8a2,2,0,0,1-2-2v-8a2,2,0,0,1,2-2h8a2,2,0,0,0,2-2v-8a2,2,0,0,1,2-2h8a2,2,0,0,1,2,2v8a2,2,0,0,0,2,2h8a2,2,0,0,1,2,2v8A2,2,0,0,1,839,333.48Z" transform="translate(-773.03 -275.77)"/><rect class="cls-2" width="100" height="100"/></svg>