<svg id="Layer_1" data-name="Layer 1" xmlns="http://www.w3.org/2000/svg" xmlns:xlink="http://www.w3.org/1999/xlink" viewBox="0 0 1360.59 355.51"><defs><style>.cls-1{fill:url(#linear-gradient);}.cls-2{fill:url(#linear-gradient-2);}.cls-3{fill:url(#linear-gradient-3);}.cls-4{fill:url(#linear-gradient-4);}.cls-5{fill:url(#linear-gradient-5);}.cls-6{fill:url(#linear-gradient-6);}.cls-7{fill:url(#linear-gradient-7);}.cls-8{fill:url(#linear-gradient-8);}.cls-9{fill:url(#linear-gradient-9);}.cls-10{fill:url(#linear-gradient-10);}.cls-11{fill:url(#linear-gradient-11);}.cls-12{fill:url(#linear-gradient-12);}.cls-13{fill:url(#linear-gradient-13);}.cls-14{fill:url(#linear-gradient-14);}.cls-15{fill:url(#linear-gradient-15);}.cls-16{fill:url(#linear-gradient-16);}.cls-17{fill:url(#linear-gradient-17);}.cls-18{fill:url(#linear-gradient-18);}.cls-19{fill:url(#linear-gradient-19);}.cls-20{fill:url(#linear-gradient-20);}</style><linearGradient id="linear-gradient" x1="99.4" y1="365.13" x2="99.4" y2="286.94" gradientUnits="userSpaceOnUse"><stop offset="0" stop-color="#d45800"/><stop offset="0.32" stop-color="#df6605"/><stop offset="0.93" stop-color="#fb8c13"/><stop offset="1" stop-color="#ff9115"/></linearGradient><linearGradient id="linear-gradient-2" x1="243.7" y1="365.13" x2="243.7" y2="286.94" xlink:href="#linear-gradient"/><linearGradient id="linear-gradient-3" x1="532.28" y1="364.03" x2="532.28" y2="288.04" xlink:href="#linear-gradient"/><linearGradient id="linear-gradient-4" x1="387.99" y1="364.03" x2="387.99" y2="288.04" xlink:href="#linear-gradient"/><linearGradient id="linear-gradient-5" x1="676.58" y1="361.53" x2="676.58" y2="290.55" xlink:href="#linear-gradient"/><linearGradient id="linear-gradient-6" x1="820.87" y1="361.53" x2="820.87" y2="290.55" xlink:href="#linear-gradient"/><linearGradient id="linear-gradient-7" x1="1253.75" y1="360.04" x2="1253.75" y2="292.04" xlink:href="#linear-gradient"/><linearGradient id="linear-gradient-8" x1="1398.04" y1="362.04" x2="1398.04" y2="290.04" xlink:href="#linear-gradient"/><linearGradient id="linear-gradient-9" x1="1109.46" y1="366.54" x2="1109.46" y2="285.54" xlink:href="#linear-gradient"/><linearGradient id="linear-gradient-10" x1="992.24" y1="318.72" x2="938.24" y2="318.72" gradientTransform="translate(1283.89 -639.2) rotate(90)" xlink:href="#linear-gradient"/><linearGradient id="linear-gradient-11" x1="99.4" y1="639.64" x2="99.4" y2="561.45" gradientUnits="userSpaceOnUse"><stop offset="0" stop-color="#ff9115"/><stop offset="0.07" stop-color="#fb8c13"/><stop offset="0.68" stop-color="#df6605"/><stop offset="1" stop-color="#d45800"/></linearGradient><linearGradient id="linear-gradient-12" x1="243.7" y1="639.64" x2="243.7" y2="561.45" xlink:href="#linear-gradient-11"/><linearGradient id="linear-gradient-13" x1="532.28" y1="638.54" x2="532.28" y2="562.55" xlink:href="#linear-gradient-11"/><linearGradient id="linear-gradient-14" x1="387.99" y1="638.54" x2="387.99" y2="562.55" xlink:href="#linear-gradient-11"/><linearGradient id="linear-gradient-15" x1="676.58" y1="636.04" x2="676.58" y2="565.06" xlink:href="#linear-gradient-11"/><linearGradient id="linear-gradient-16" x1="820.87" y1="636.04" x2="820.87" y2="565.06" xlink:href="#linear-gradient-11"/><linearGradient id="linear-gradient-17" x1="1253.75" y1="634.55" x2="1253.75" y2="566.55" xlink:href="#linear-gradient-11"/><linearGradient id="linear-gradient-18" x1="1398.04" y1="636.55" x2="1398.04" y2="564.55" xlink:href="#linear-gradient-11"/><linearGradient id="linear-gradient-19" x1="1109.46" y1="641.05" x2="1109.46" y2="560.05" xlink:href="#linear-gradient-11"/><linearGradient id="linear-gradient-20" x1="1266.75" y1="318.72" x2="1212.75" y2="318.72" gradientTransform="translate(1283.89 -639.2) rotate(90)" xlink:href="#linear-gradient-11"/></defs><title>Buttons</title><path class="cls-1" d="M122.92,329.11a2,2,0,0,0-2,1.82,21.27,21.27,0,0,1-21.24,19.2c-12,0-21.9-9.18-21.9-20.91a21.25,21.25,0,0,1,14.07-19.81,2,2,0,0,1,2.68,1.89v0.64a2,2,0,0,0,3,1.73l19.91-11.49a2,2,0,0,0,0-3.46L97.54,287.22a2,2,0,0,0-3,1.73v2.88a2,2,0,0,1-1.65,2A35.75,35.75,0,0,0,63,329.22c0,20.14,16.2,35.91,36.57,35.91a36.35,36.35,0,0,0,36.32-33.88,2,2,0,0,0-2-2.13Z" transform="translate(-62.95 -285.54)"/><path class="cls-2" d="M221.06,329.11a2,2,0,0,1,2,1.82,21.27,21.27,0,0,0,21.24,19.2c12,0,20.49-9.18,20.49-20.91,0-9.46-6.77-17.26-15.54-19.92a2,2,0,0,0-2.62,1.91v0.73a2,2,0,0,1-3,1.73l-19.91-11.49a2,2,0,0,1,0-3.46l19.91-11.49a2,2,0,0,1,3,1.73v2.88a2,2,0,0,0,1.65,2c17.26,2.82,31.35,17.63,31.35,35.43,0,20.14-15.5,35.91-35.87,35.91a36,36,0,0,1-36-33.88,2,2,0,0,1,2-2.13Z" transform="translate(-62.95 -285.54)"/><path class="cls-3" d="M571.27,303.75h-38a2,2,0,0,1-2-2V290a2,2,0,0,0-3.41-1.41l-36,36a2,2,0,0,0,0,2.83l36,36a2,2,0,0,0,3.41-1.41v-8.27a2,2,0,0,1,2-2h38a2,2,0,0,0,2-2v-44A2,2,0,0,0,571.27,303.75Z" transform="translate(-62.95 -285.54)"/><path class="cls-4" d="M428.39,324.62l-36-36A2,2,0,0,0,389,290v11.71a2,2,0,0,1-2,2H349a2,2,0,0,0-2,2v44a2,2,0,0,0,2,2h38a2,2,0,0,1,2,2V362a2,2,0,0,0,3.41,1.41l36-36A2,2,0,0,0,428.39,324.62Z" transform="translate(-62.95 -285.54)"/><path id="zoom_in" data-name="zoom in" class="cls-5" d="M678.88,290.62A35.49,35.49,0,1,0,712,323.73,35.5,35.5,0,0,0,678.88,290.62Zm13.65,43.13h-8a2,2,0,0,0-2,2v8a2,2,0,0,1-2,2h-8a2,2,0,0,1-2-2v-8a2,2,0,0,0-2-2h-8a2,2,0,0,1-2-2v-8a2,2,0,0,1,2-2h8a2,2,0,0,0,2-2v-8a2,2,0,0,1,2-2h8a2,2,0,0,1,2,2v8a2,2,0,0,0,2,2h8a2,2,0,0,1,2,2v8A2,2,0,0,1,692.53,333.75Z" transform="translate(-62.95 -285.54)"/><path id="zoom_out" data-name="zoom out" class="cls-6" d="M823.18,290.62a35.49,35.49,0,1,0,33.11,33.11A35.5,35.5,0,0,0,823.18,290.62Zm14.35,44.13h-32a2,2,0,0,1-2-2v-8a2,2,0,0,1,2-2h32a2,2,0,0,1,2,2v8A2,2,0,0,1,837.53,334.75Z" transform="translate(-62.95 -285.54)"/><path class="cls-7" d="M1213.25,294v64a2,2,0,0,0,2,2h77a2,2,0,0,0,2-2V294a2,2,0,0,0-2-2h-77A2,2,0,0,0,1213.25,294Zm59.15,36.74h-7.24a2,2,0,0,0-1.69,3.07l3.4,5.35a2,2,0,0,1-.81,2.87l-3.71,1.81a2,2,0,0,1-2.62-.81l-3.89-6.84a2,2,0,0,0-3.47,0l-3.88,6.72a2,2,0,0,1-2.57.82l-3.68-1.7a2,2,0,0,1-.85-2.89l3.38-5.34a2,2,0,0,0-1.69-3.07h-8a2,2,0,0,1-2-2v-4.54a2,2,0,0,1,2-2h8.3a2,2,0,0,0,1.77-2.94l-4.15-7.83a2,2,0,0,1,.66-2.6l4.13-2.74a2,2,0,0,1,2.83.66l3.73,6.38a2,2,0,0,0,3.46,0l3.74-6.5a2,2,0,0,1,2.87-.65l4.16,2.88a2,2,0,0,1,.63,2.58l-4.16,7.83a2,2,0,0,0,1.77,2.94h7.56a2,2,0,0,1,2,2v4.54A2,2,0,0,1,1272.4,330.78Z" transform="translate(-62.95 -285.54)"/><path class="cls-8" d="M1406.54,295v-3a2,2,0,0,0-2-2h-13a2,2,0,0,0-2,2v3a2,2,0,0,1-2,2h-13a2,2,0,0,0-2,2v5a2,2,0,0,0,2,2h1a2,2,0,0,1,2,2v52a2,2,0,0,0,2,2h37a2,2,0,0,0,2-2V308a2,2,0,0,1,2-2h1a2,2,0,0,0,2-2v-5a2,2,0,0,0-2-2h-13A2,2,0,0,1,1406.54,295Z" transform="translate(-62.95 -285.54)"/><path class="cls-9" d="M1136.46,287.54a2,2,0,0,0-2-2h-50a2,2,0,0,0-2,2v77a2,2,0,0,0,2,2h50a2,2,0,0,0,2-2v-77Zm-22.58,61.11h-8a2,2,0,0,1-2-2v-19a2,2,0,0,0-2-2H1099a2,2,0,0,1-1.73-3l10.9-18.87a2,2,0,0,1,3.46,0l10.89,18.87a2,2,0,0,1-1.73,3h-2.9a2,2,0,0,0-2,2v19A2,2,0,0,1,1113.88,348.65Z" transform="translate(-62.95 -285.54)"/><path class="cls-10" d="M1003.66,353a2,2,0,0,0,2-2V301a2,2,0,0,0-2-2h-77a2,2,0,0,0-2,2v50a2,2,0,0,0,2,2h77Zm-61.11-22.58v-8a2,2,0,0,1,2-2h19a2,2,0,0,0,2-2v-2.9a2,2,0,0,1,3-1.73l18.87,10.9a2,2,0,0,1,0,3.46l-18.87,10.89a2,2,0,0,1-3-1.73v-2.9a2,2,0,0,0-2-2h-19A2,2,0,0,1,942.55,330.46Z" transform="translate(-62.95 -285.54)"/><path class="cls-11" d="M122.92,603.62a2,2,0,0,0-2,1.82,21.27,21.27,0,0,1-21.24,19.2c-12,0-21.9-9.18-21.9-20.91a21.25,21.25,0,0,1,14.07-19.81,2,2,0,0,1,2.68,1.89v0.64a2,2,0,0,0,3,1.73l19.91-11.49a2,2,0,0,0,0-3.46L97.54,561.73a2,2,0,0,0-3,1.73v2.88a2,2,0,0,1-1.65,2A35.75,35.75,0,0,0,63,603.73c0,20.14,16.2,35.91,36.57,35.91a36.35,36.35,0,0,0,36.32-33.88,2,2,0,0,0-2-2.13Z" transform="translate(-62.95 -285.54)"/><path class="cls-12" d="M221.06,603.62a2,2,0,0,1,2,1.82,21.27,21.27,0,0,0,21.24,19.2c12,0,20.49-9.18,20.49-20.91,0-9.46-6.77-17.26-15.54-19.92a2,2,0,0,0-2.62,1.91v0.73a2,2,0,0,1-3,1.73l-19.91-11.49a2,2,0,0,1,0-3.46l19.91-11.49a2,2,0,0,1,3,1.73v2.88a2,2,0,0,0,1.65,2c17.26,2.82,31.35,17.63,31.35,35.43,0,20.14-15.5,35.91-35.87,35.91a36,36,0,0,1-36-33.88,2,2,0,0,1,2-2.13Z" transform="translate(-62.95 -285.54)"/><path class="cls-13" d="M571.27,578.26h-38a2,2,0,0,1-2-2V564.56a2,2,0,0,0-3.41-1.41l-36,36a2,2,0,0,0,0,2.83l36,36a2,2,0,0,0,3.41-1.41v-8.27a2,2,0,0,1,2-2h38a2,2,0,0,0,2-2v-44A2,2,0,0,0,571.27,578.26Z" transform="translate(-62.95 -285.54)"/><path class="cls-14" d="M428.39,599.13l-36-36a2,2,0,0,0-3.41,1.41v11.71a2,2,0,0,1-2,2H349a2,2,0,0,0-2,2v44a2,2,0,0,0,2,2h38a2,2,0,0,1,2,2v8.27a2,2,0,0,0,3.41,1.41l36-36A2,2,0,0,0,428.39,599.13Z" transform="translate(-62.95 -285.54)"/><path id="zoom_in-2" data-name="zoom in" class="cls-15" d="M678.88,565.13A35.49,35.49,0,1,0,712,598.24,35.5,35.5,0,0,0,678.88,565.13Zm13.65,43.13h-8a2,2,0,0,0-2,2v8a2,2,0,0,1-2,2h-8a2,2,0,0,1-2-2v-8a2,2,0,0,0-2-2h-8a2,2,0,0,1-2-2v-8a2,2,0,0,1,2-2h8a2,2,0,0,0,2-2v-8a2,2,0,0,1,2-2h8a2,2,0,0,1,2,2v8a2,2,0,0,0,2,2h8a2,2,0,0,1,2,2v8A2,2,0,0,1,692.53,608.26Z" transform="translate(-62.95 -285.54)"/><path id="zoom_out-2" data-name="zoom out" class="cls-16" d="M823.18,565.13a35.49,35.49,0,1,0,33.11,33.11A35.5,35.5,0,0,0,823.18,565.13Zm14.35,44.13h-32a2,2,0,0,1-2-2v-8a2,2,0,0,1,2-2h32a2,2,0,0,1,2,2v8A2,2,0,0,1,837.53,609.26Z" transform="translate(-62.95 -285.54)"/><path class="cls-17" d="M1213.25,568.55v64a2,2,0,0,0,2,2h77a2,2,0,0,0,2-2v-64a2,2,0,0,0-2-2h-77A2,2,0,0,0,1213.25,568.55Zm59.15,36.74h-7.24a2,2,0,0,0-1.69,3.07l3.4,5.35a2,2,0,0,1-.81,2.87l-3.71,1.81a2,2,0,0,1-2.62-.81l-3.89-6.84a2,2,0,0,0-3.47,0l-3.88,6.72a2,2,0,0,1-2.57.82l-3.68-1.7a2,2,0,0,1-.85-2.89l3.38-5.34a2,2,0,0,0-1.69-3.07h-8a2,2,0,0,1-2-2v-4.54a2,2,0,0,1,2-2h8.3a2,2,0,0,0,1.77-2.94L1241,586a2,2,0,0,1,.66-2.6l4.13-2.74a2,2,0,0,1,2.83.66l3.73,6.38a2,2,0,0,0,3.46,0l3.74-6.5a2,2,0,0,1,2.87-.65l4.16,2.88a2,2,0,0,1,.63,2.58l-4.16,7.83a2,2,0,0,0,1.77,2.94h7.56a2,2,0,0,1,2,2v4.54A2,2,0,0,1,1272.4,605.29Z" transform="translate(-62.95 -285.54)"/><path class="cls-18" d="M1406.54,569.55v-3a2,2,0,0,0-2-2h-13a2,2,0,0,0-2,2v3a2,2,0,0,1-2,2h-13a2,2,0,0,0-2,2v5a2,2,0,0,0,2,2h1a2,2,0,0,1,2,2v52a2,2,0,0,0,2,2h37a2,2,0,0,0,2-2v-52a2,2,0,0,1,2-2h1a2,2,0,0,0,2-2v-5a2,2,0,0,0-2-2h-13A2,2,0,0,1,1406.54,569.55Z" transform="translate(-62.95 -285.54)"/><path class="cls-19" d="M1136.46,562a2,2,0,0,0-2-2h-50a2,2,0,0,0-2,2v77a2,2,0,0,0,2,2h50a2,2,0,0,0,2-2V562Zm-22.58,61.11h-8a2,2,0,0,1-2-2v-19a2,2,0,0,0-2-2H1099a2,2,0,0,1-1.73-3l10.9-18.87a2,2,0,0,1,3.46,0l10.89,18.87a2,2,0,0,1-1.73,3h-2.9a2,2,0,0,0-2,2v19A2,2,0,0,1,1113.88,623.16Z" transform="translate(-62.95 -285.54)"/><path class="cls-20" d="M1003.66,627.55a2,2,0,0,0,2-2v-50a2,2,0,0,0-2-2h-77a2,2,0,0,0-2,2v50a2,2,0,0,0,2,2h77ZM942.55,605v-8a2,2,0,0,1,2-2h19a2,2,0,0,0,2-2v-2.9a2,2,0,0,1,3-1.73l18.87,10.9a2,2,0,0,1,0,3.46L968.54,613.6a2,2,0,0,1-3-1.73V609a2,2,0,0,0-2-2h-19A2,2,0,0,1,942.55,605Z" transform="translate(-62.95 -285.54)"/></svg>