<svg id="Base" xmlns="http://www.w3.org/2000/svg" viewBox="0 0 100 100">
  <defs>
    <style>
      .cls-1 {
        fill: #fff;
      }

      .cls-2, .cls-3 {
        fill: none;
      }

      .cls-2 {
        stroke: #000;
        stroke-miterlimit: 10;
        stroke-width: 3px;
      }
    </style>
  </defs>
  <title>flip_h_btn</title>
  <g>
    <g>
      <path class="cls-1" d="M86.5,27V73h-73V27h73M46.38,40.43h-17a6,6,0,0,0-6,6v8a6,6,0,0,0,6,6h17v0.9a6,6,0,0,0,6,6,6,6,0,0,0,3-.81L74.25,55.63a6,6,0,0,0,0-10.39L55.38,34.34a6,6,0,0,0-9,5.19v0.9M88.5,23h-77a2,2,0,0,0-2,2V75a2,2,0,0,0,2,2h77a2,2,0,0,0,2-2V25a2,2,0,0,0-2-2h0ZM48.38,44.43a2,2,0,0,0,2-2v-2.9a2,2,0,0,1,3-1.73L72.25,48.7a2,2,0,0,1,0,3.46L53.38,63.06a2,2,0,0,1-3-1.73v-2.9a2,2,0,0,0-2-2h-19a2,2,0,0,1-2-2v-8a2,2,0,0,1,2-2h19Z"/>
      <path class="cls-2" d="M88.5,77a2,2,0,0,0,2-2V25a2,2,0,0,0-2-2h-77a2,2,0,0,0-2,2V75a2,2,0,0,0,2,2h77ZM27.39,54.42v-8a2,2,0,0,1,2-2h19a2,2,0,0,0,2-2v-2.9a2,2,0,0,1,3-1.73L72.25,48.7a2,2,0,0,1,0,3.46L53.38,63.06a2,2,0,0,1-3-1.73v-2.9a2,2,0,0,0-2-2h-19A2,2,0,0,1,27.39,54.42Z"/>
    </g>
    <rect class="cls-3" width="100" height="100"/>
  </g>
</svg>
