<svg id="Layer_1" data-name="Layer 1" xmlns="http://www.w3.org/2000/svg" xmlns:xlink="http://www.w3.org/1999/xlink" viewBox="0 0 100 100"><defs><style>.cls-1{fill:url(#linear-gradient);}.cls-2{fill:none;}</style><linearGradient id="linear-gradient" x1="1372.14" y1="366.27" x2="1372.14" y2="285.27" gradientUnits="userSpaceOnUse"><stop offset="0" stop-color="#d45800"/><stop offset="0.32" stop-color="#df6605"/><stop offset="0.93" stop-color="#fb8c13"/><stop offset="1" stop-color="#ff9115"/></linearGradient></defs><title>flip_v_btn</title><path class="cls-1" d="M1399.14,287.27a2,2,0,0,0-2-2h-50a2,2,0,0,0-2,2v77a2,2,0,0,0,2,2h50a2,2,0,0,0,2-2v-77Zm-22.58,61.11h-8a2,2,0,0,1-2-2v-19a2,2,0,0,0-2-2h-2.9a2,2,0,0,1-1.73-3l10.9-18.87a2,2,0,0,1,3.46,0l10.89,18.87a2,2,0,0,1-1.73,3h-2.9a2,2,0,0,0-2,2v19A2,2,0,0,1,1376.56,348.38Z" transform="translate(-1322.14 -275.77)"/><rect class="cls-2" width="100" height="100"/></svg>