<svg id="Base" xmlns="http://www.w3.org/2000/svg" viewBox="0 0 100 100">
  <defs>
    <style>
      .cls-1 {
        fill: #fff;
      }

      .cls-2, .cls-3 {
        fill: none;
      }

      .cls-2 {
        stroke: #000;
        stroke-miterlimit: 10;
        stroke-width: 3px;
      }
    </style>
  </defs>
  <title>flip_v_btn</title>
  <g>
    <g>
      <path class="cls-1" d="M73,14.3v73H27v-73H73M40.43,54.42v17a6,6,0,0,0,6,6h8a6,6,0,0,0,6-6v-17h0.9a6,6,0,0,0,5.2-9L55.63,26.55a6,6,0,0,0-10.39,0L34.34,45.42a6,6,0,0,0,5.19,9h0.9M75,10.3H25a2,2,0,0,0-2,2v77a2,2,0,0,0,2,2H75a2,2,0,0,0,2-2v-77a2,2,0,0,0-2-2h0ZM54.42,73.41h-8a2,2,0,0,1-2-2v-19a2,2,0,0,0-2-2h-2.9a2,2,0,0,1-1.73-3L48.7,28.55a2,2,0,0,1,3.46,0L63.06,47.43a2,2,0,0,1-1.73,3h-2.9a2,2,0,0,0-2,2v19a2,2,0,0,1-2,2h0Z"/>
      <path class="cls-2" d="M77,12.3a2,2,0,0,0-2-2H25a2,2,0,0,0-2,2v77a2,2,0,0,0,2,2H75a2,2,0,0,0,2-2v-77ZM54.42,73.41h-8a2,2,0,0,1-2-2v-19a2,2,0,0,0-2-2h-2.9a2,2,0,0,1-1.73-3L48.7,28.55a2,2,0,0,1,3.46,0L63.06,47.43a2,2,0,0,1-1.73,3h-2.9a2,2,0,0,0-2,2v19A2,2,0,0,1,54.42,73.41Z"/>
    </g>
    <rect class="cls-3" y="0.8" width="100" height="100"/>
  </g>
</svg>
