<svg id="Base" xmlns="http://www.w3.org/2000/svg" viewBox="0 0 100 100">
  <defs>
    <style>
      .cls-1, .cls-3 {
        fill: none;
      }

      .cls-2 {
        fill: #fff;
      }

      .cls-3 {
        stroke: #000;
        stroke-miterlimit: 10;
        stroke-width: 3px;
      }
    </style>
  </defs>
  <title>fullscreen_btn</title>
  <g>
    <rect class="cls-1" x="-0.31" y="-0.49" width="100" height="100"/>
    <g>
      <path class="cls-2" d="M26.17,13.46a6,6,0,0,0,.49,7.93L46.71,41.44a6,6,0,0,0,8.49,0L75.25,21.39a6,6,0,0,0,.49-7.93h11v11a6,6,0,0,0-7.93.49L58.73,45a6,6,0,0,0,0,8.49L78.78,73.51a6,6,0,0,0,7.93.49V85h-11A6,6,0,0,0,75.24,77L55.19,57a6,6,0,0,0-8.49,0L26.66,77A6,6,0,0,0,26.16,85h-11V74a6,6,0,0,0,7.93-.49L43.17,53.46a6,6,0,0,0,0-8.49L23.12,24.93a6,6,0,0,0-7.93-.49v-11h11m42-4c-1.1,0-1.36.64-.59,1.41l4.86,4.86a2,2,0,0,1,0,2.83L52.37,38.61a2,2,0,0,1-2.83,0L29.49,18.56a2,2,0,0,1,0-2.83l4.86-4.86c0.78-.78.51-1.41-0.59-1.41H13.19a2,2,0,0,0-2,2V32c0,0.67.24,1,.6,1a1.26,1.26,0,0,0,.81-0.45l4.86-4.86a2,2,0,0,1,2.83,0L40.34,47.81a2,2,0,0,1,0,2.83L20.29,70.69a2,2,0,0,1-2.83,0l-4.86-4.86a1.26,1.26,0,0,0-.81-0.45c-0.36,0-.6.36-0.6,1V87a2,2,0,0,0,2,2H33.76c1.1,0,1.36-.64.59-1.41l-4.86-4.86a2,2,0,0,1,0-2.83L49.54,59.83a2,2,0,0,1,2.83,0L72.42,79.88a2,2,0,0,1,0,2.83l-4.86,4.86C66.78,88.34,67,89,68.14,89H88.71a2,2,0,0,0,2-2V66.41c0-.67-0.24-1-0.6-1a1.26,1.26,0,0,0-.81.45l-4.86,4.86a2,2,0,0,1-2.83,0L61.56,50.63a2,2,0,0,1,0-2.83L81.61,27.75a2,2,0,0,1,2.83,0l4.86,4.86a1.26,1.26,0,0,0,.81.45c0.36,0,.6-0.36.6-1V11.46a2,2,0,0,0-2-2H68.14Z"/>
      <path class="cls-3" d="M61.56,50.63a2,2,0,0,1,0-2.83L81.61,27.75a2,2,0,0,1,2.83,0l4.86,4.86c0.78,0.78,1.41.51,1.41-.59V11.46a2,2,0,0,0-2-2H68.14c-1.1,0-1.36.64-.59,1.41l4.86,4.86a2,2,0,0,1,0,2.83L52.37,38.61a2,2,0,0,1-2.83,0L29.49,18.56a2,2,0,0,1,0-2.83l4.86-4.86c0.78-.78.51-1.41-0.59-1.41H13.19a2,2,0,0,0-2,2V32c0,1.1.64,1.36,1.41,0.59l4.86-4.86a2,2,0,0,1,2.83,0L40.34,47.81a2,2,0,0,1,0,2.83L20.29,70.69a2,2,0,0,1-2.83,0l-4.86-4.86c-0.78-.78-1.41-0.51-1.41.59V87a2,2,0,0,0,2,2H33.76c1.1,0,1.36-.64.59-1.41l-4.86-4.86a2,2,0,0,1,0-2.83L49.54,59.83a2,2,0,0,1,2.83,0L72.42,79.88a2,2,0,0,1,0,2.83l-4.86,4.86C66.78,88.34,67,89,68.14,89H88.71a2,2,0,0,0,2-2V66.41c0-1.1-.64-1.36-1.41-0.59l-4.86,4.86a2,2,0,0,1-2.83,0Z"/>
    </g>
  </g>
</svg>
