<svg id="Base" xmlns="http://www.w3.org/2000/svg" viewBox="0 0 100 100">
  <defs>
    <style>
      .cls-1 {
        fill: #fff;
      }

      .cls-2, .cls-3 {
        fill: none;
      }

      .cls-2 {
        stroke: #000;
        stroke-miterlimit: 10;
        stroke-width: 3px;
      }
    </style>
  </defs>
  <title>next_btn</title>
  <g>
    <g>
      <path class="cls-1" d="M56,19.21L87.16,50.37,56,81.53V78.09a6,6,0,0,0-6-6H14v-40H50a6,6,0,0,0,6-6V19.21m-2-6.83a2,2,0,0,0-2,2V26.09a2,2,0,0,1-2,2H12a2,2,0,0,0-2,2v44a2,2,0,0,0,2,2H50a2,2,0,0,1,2,2v8.27a2,2,0,0,0,2,2,2,2,0,0,0,1.4-.59l36-36a2,2,0,0,0,0-2.83l-36-36a2,2,0,0,0-1.4-.59h0Z"/>
      <path class="cls-2" d="M91.4,49l-36-36A2,2,0,0,0,52,14.38V26.09a2,2,0,0,1-2,2H12a2,2,0,0,0-2,2v44a2,2,0,0,0,2,2H50a2,2,0,0,1,2,2v8.27a2,2,0,0,0,3.41,1.41l36-36A2,2,0,0,0,91.4,49Z"/>
    </g>
    <rect class="cls-3" y="0.37" width="100" height="100"/>
  </g>
</svg>
