<svg id="Base" xmlns="http://www.w3.org/2000/svg" viewBox="0 0 100 100">
  <defs>
    <style>
      .cls-1 {
        fill: #fff;
      }

      .cls-2, .cls-3 {
        fill: none;
      }

      .cls-2 {
        stroke: #000;
        stroke-miterlimit: 10;
        stroke-width: 3px;
      }
    </style>
  </defs>
  <title>previous_btn</title>
  <g>
    <g>
      <path class="cls-1" d="M44,19.21v6.88a6,6,0,0,0,6,6H86v40H50a6,6,0,0,0-6,6v3.44L12.84,50.37,44,19.21m2-6.83a2,2,0,0,0-1.4.59L8.6,49a2,2,0,0,0,0,2.83l36,36a2,2,0,0,0,1.4.59,2,2,0,0,0,2-2V78.09a2,2,0,0,1,2-2H88a2,2,0,0,0,2-2v-44a2,2,0,0,0-2-2H50a2,2,0,0,1-2-2V14.38a2,2,0,0,0-2-2h0Z"/>
      <path class="cls-2" d="M8.6,49l36-36A2,2,0,0,1,48,14.38V26.09a2,2,0,0,0,2,2H88a2,2,0,0,1,2,2v44a2,2,0,0,1-2,2H50a2,2,0,0,0-2,2v8.27a2,2,0,0,1-3.41,1.41l-36-36A2,2,0,0,1,8.6,49Z"/>
    </g>
    <rect class="cls-3" y="0.37" width="100" height="100" transform="translate(100 100.75) rotate(-180)"/>
  </g>
</svg>
