<svg id="Layer_1" data-name="Layer 1" xmlns="http://www.w3.org/2000/svg" xmlns:xlink="http://www.w3.org/1999/xlink" viewBox="0 0 100 100"><defs><style>.cls-1{fill:url(#linear-gradient);}.cls-2{fill:none;}</style><linearGradient id="linear-gradient" x1="1555.17" y1="359.77" x2="1555.17" y2="291.77" gradientUnits="userSpaceOnUse"><stop offset="0" stop-color="#d45800"/><stop offset="0.32" stop-color="#df6605"/><stop offset="0.93" stop-color="#fb8c13"/><stop offset="1" stop-color="#ff9115"/></linearGradient></defs><title>reset_btn</title><path class="cls-1" d="M1514.67,293.77v64a2,2,0,0,0,2,2h77a2,2,0,0,0,2-2v-64a2,2,0,0,0-2-2h-77A2,2,0,0,0,1514.67,293.77Zm59.15,36.74h-7.24a2,2,0,0,0-1.69,3.07l3.4,5.35a2,2,0,0,1-.81,2.87l-3.71,1.81a2,2,0,0,1-2.62-.81l-3.89-6.84a2,2,0,0,0-3.47,0l-3.88,6.72a2,2,0,0,1-2.57.82l-3.68-1.7a2,2,0,0,1-.85-2.89l3.38-5.34a2,2,0,0,0-1.69-3.07h-8a2,2,0,0,1-2-2V324a2,2,0,0,1,2-2h8.3a2,2,0,0,0,1.77-2.94l-4.15-7.83a2,2,0,0,1,.66-2.6l4.13-2.74a2,2,0,0,1,2.83.66l3.73,6.38a2,2,0,0,0,3.46,0l3.74-6.5a2,2,0,0,1,2.87-.65l4.16,2.88a2,2,0,0,1,.63,2.58L1564.5,319a2,2,0,0,0,1.77,2.94h7.56a2,2,0,0,1,2,2v4.54A2,2,0,0,1,1573.82,330.51Z" transform="translate(-1505.17 -275.77)"/><rect class="cls-2" width="100" height="100"/></svg>