<svg id="Base" xmlns="http://www.w3.org/2000/svg" viewBox="0 0 100 100">
  <defs>
    <style>
      .cls-1 {
        fill: #fff;
      }

      .cls-2, .cls-3 {
        fill: none;
      }

      .cls-2 {
        stroke: #000;
        stroke-miterlimit: 10;
        stroke-width: 3px;
      }
    </style>
  </defs>
  <title>reset_btn</title>
  <g>
    <g>
      <path class="cls-1" d="M86.5,20V80h-73V20h73M50.34,32.13l-2-3.41a6,6,0,0,0-8.5-2l-4.13,2.74a6,6,0,0,0-2,7.81l2.59,4.9h-5a6,6,0,0,0-6,6v4.54a6,6,0,0,0,6,6H35.7L34.26,61a6,6,0,0,0,2.55,8.66l3.68,1.7a6,6,0,0,0,2.52.56,6,6,0,0,0,5.2-3l2.14-3.7L52.51,69a6,6,0,0,0,7.85,2.42l3.71-1.81A6,6,0,0,0,66.5,61L65,58.74h3.6a6,6,0,0,0,6-6V48.2a6,6,0,0,0-6-6H64.42L67,37.31a6,6,0,0,0-1.88-7.75L61,26.68a6,6,0,0,0-8.62,1.94l-2,3.51M88.5,16h-77a2,2,0,0,0-2,2V82a2,2,0,0,0,2,2h77a2,2,0,0,0,2-2V18a2,2,0,0,0-2-2h0ZM50.35,38.12a2,2,0,0,0,1.73-1l3.74-6.5A2,2,0,0,1,58.7,30l4.16,2.88a2,2,0,0,1,.63,2.58l-4.16,7.83a2,2,0,0,0,1.77,2.94h7.56a2,2,0,0,1,2,2v4.54a2,2,0,0,1-2,2H61.41a2,2,0,0,0-1.69,3.07l3.4,5.35A2,2,0,0,1,62.31,66L58.6,67.85A2,2,0,0,1,56,67l-3.89-6.84a2,2,0,0,0-3.47,0l-3.88,6.72a2,2,0,0,1-2.57.82L38.49,66a2,2,0,0,1-.85-2.89L41,57.81a2,2,0,0,0-1.69-3.07h-8a2,2,0,0,1-2-2V48.2a2,2,0,0,1,2-2h8.3a2,2,0,0,0,1.77-2.94l-4.15-7.83a2,2,0,0,1,.66-2.6l4.13-2.74a2,2,0,0,1,2.83.66l3.73,6.38a2,2,0,0,0,1.73,1h0Z"/>
      <path class="cls-2" d="M9.5,18V82a2,2,0,0,0,2,2h77a2,2,0,0,0,2-2V18a2,2,0,0,0-2-2h-77A2,2,0,0,0,9.5,18ZM68.65,54.74H61.41a2,2,0,0,0-1.69,3.07l3.4,5.35A2,2,0,0,1,62.31,66L58.6,67.85A2,2,0,0,1,56,67l-3.89-6.84a2,2,0,0,0-3.47,0l-3.88,6.72a2,2,0,0,1-2.57.82L38.49,66a2,2,0,0,1-.85-2.89L41,57.81a2,2,0,0,0-1.69-3.07h-8a2,2,0,0,1-2-2V48.2a2,2,0,0,1,2-2h8.3a2,2,0,0,0,1.77-2.94l-4.15-7.83a2,2,0,0,1,.66-2.6l4.13-2.74a2,2,0,0,1,2.83.66l3.73,6.38a2,2,0,0,0,3.46,0l3.74-6.5A2,2,0,0,1,58.7,30l4.16,2.88a2,2,0,0,1,.63,2.58l-4.16,7.83a2,2,0,0,0,1.77,2.94h7.56a2,2,0,0,1,2,2v4.54A2,2,0,0,1,68.65,54.74Z"/>
    </g>
    <rect class="cls-3" width="100" height="100"/>
  </g>
</svg>
