<svg id="Base" xmlns="http://www.w3.org/2000/svg" viewBox="0 0 100 100">
  <defs>
    <style>
      .cls-1 {
        fill: #fff;
      }

      .cls-2, .cls-3 {
        fill: none;
      }

      .cls-2 {
        stroke: #000;
        stroke-miterlimit: 10;
        stroke-width: 3px;
      }
    </style>
  </defs>
  <title>rotate_ccw_btn</title>
  <g>
    <g>
      <path class="cls-1" d="M48.7,12.7a6,6,0,0,0,5,5.34c16,2.6,28,16.14,28,31.48A31.35,31.35,0,0,1,49.81,81.43,32.07,32.07,0,0,1,18,53.43h7.33a25.44,25.44,0,0,0,25,21c14,0,24.49-10.71,24.49-24.91,0-10.87-7.38-20.41-18.37-23.75a6.08,6.08,0,0,0-1.77-.26,6,6,0,0,0-5.5,3.56L34.77,20.75l13.93-8m2-5.45a2,2,0,0,0-1,.27L29.77,19a2,2,0,0,0,0,3.46L49.68,34a2,2,0,0,0,3-1.73V31.51a2,2,0,0,1,2-2,2.08,2.08,0,0,1,.61.09c8.77,2.66,15.54,10.46,15.54,19.92,0,11.72-8.53,20.91-20.49,20.91a21.27,21.27,0,0,1-21.24-19.2,2,2,0,0,0-2-1.82h0l-11.28,0a2,2,0,0,0-2,2.13,36,36,0,0,0,36,33.88c20.37,0,35.87-15.77,35.87-35.91,0-17.8-14.09-32.61-31.35-35.43a2,2,0,0,1-1.65-2V9.25a2,2,0,0,0-2-2h0Z"/>
      <path class="cls-2" d="M27.12,49.41a2,2,0,0,1,2,1.82,21.27,21.27,0,0,0,21.24,19.2c12,0,20.49-9.18,20.49-20.91,0-9.46-6.77-17.26-15.54-19.92a2,2,0,0,0-2.62,1.91v0.73a2,2,0,0,1-3,1.73L29.77,22.48a2,2,0,0,1,0-3.46L49.68,7.52a2,2,0,0,1,3,1.73v2.88a2,2,0,0,0,1.65,2c17.26,2.82,31.35,17.63,31.35,35.43,0,20.14-15.5,35.91-35.87,35.91a36,36,0,0,1-36-33.88,2,2,0,0,1,2-2.13Z"/>
    </g>
    <rect class="cls-3" y="-0.37" width="100" height="100"/>
  </g>
</svg>
