<svg id="Base" xmlns="http://www.w3.org/2000/svg" viewBox="0 0 100 100">
  <defs>
    <style>
      .cls-1 {
        fill: #fff;
      }

      .cls-2, .cls-3 {
        fill: none;
      }

      .cls-2 {
        stroke: #000;
        stroke-miterlimit: 10;
        stroke-width: 3px;
      }
    </style>
  </defs>
  <title>rotate_cw_btn</title>
  <g>
    <g>
      <path class="cls-1" d="M49.12,13.07l13.93,8L48.59,29.47a6,6,0,0,0-7.46-3.15A25.09,25.09,0,0,0,24.39,49.9c0,13.73,11.62,24.91,25.9,24.91a25.44,25.44,0,0,0,25-21h7a32.32,32.32,0,0,1-32.13,28c-18.26,0-32.57-14-32.57-31.91A31.71,31.71,0,0,1,44.14,18.42a6,6,0,0,0,5-5.34m-2-5.45a2,2,0,0,0-2,2v2.88a2,2,0,0,1-1.65,2A35.75,35.75,0,0,0,13.55,49.9c0,20.14,16.2,35.91,36.57,35.91A36.35,36.35,0,0,0,86.44,51.93a2,2,0,0,0-2-2.13l-10.92,0h0a2,2,0,0,0-2,1.82A21.27,21.27,0,0,1,50.3,70.81c-12,0-21.9-9.18-21.9-20.91A21.25,21.25,0,0,1,42.46,30.08,2,2,0,0,1,45.14,32v0.64a2,2,0,0,0,3,1.73L68,22.85a2,2,0,0,0,0-3.46L48.14,7.89a2,2,0,0,0-1-.27h0Z"/>
      <path class="cls-2" d="M73.52,49.78a2,2,0,0,0-2,1.82A21.27,21.27,0,0,1,50.3,70.81c-12,0-21.9-9.18-21.9-20.91A21.25,21.25,0,0,1,42.46,30.08,2,2,0,0,1,45.14,32v0.64a2,2,0,0,0,3,1.73L68,22.85a2,2,0,0,0,0-3.46L48.14,7.89a2,2,0,0,0-3,1.73v2.88a2,2,0,0,1-1.65,2A35.75,35.75,0,0,0,13.55,49.9c0,20.14,16.2,35.91,36.57,35.91A36.35,36.35,0,0,0,86.44,51.93a2,2,0,0,0-2-2.13Z"/>
    </g>
    <rect class="cls-3" width="100" height="100"/>
  </g>
</svg>
