<svg id="Base" xmlns="http://www.w3.org/2000/svg" viewBox="0 0 100 100">
  <defs>
    <style>
      .cls-1 {
        fill: #fff;
      }

      .cls-2, .cls-3 {
        fill: none;
      }

      .cls-2 {
        stroke: #000;
        stroke-miterlimit: 10;
        stroke-width: 3px;
      }
    </style>
  </defs>
  <title>zoom_in_btn</title>
  <g>
    <g id="zoom_in" data-name="zoom in">
      <path class="cls-1" d="M50,18.51c0.68,0,1.37,0,2.05.07A31.49,31.49,0,0,1,50,81.49c-0.68,0-1.37,0-2.05-.07A31.49,31.49,0,0,1,50,18.51M40,40H34a6,6,0,0,0-6,6v8a6,6,0,0,0,6,6h6v6a6,6,0,0,0,6,6h8a6,6,0,0,0,6-6V60h6a6,6,0,0,0,6-6V46a6,6,0,0,0-6-6H60V34a6,6,0,0,0-6-6H46a6,6,0,0,0-6,6v6M50,14.51a35.49,35.49,0,0,0-2.31,70.91c0.77,0,1.54.07,2.31,0.07a35.49,35.49,0,0,0,2.31-70.91c-0.77,0-1.54-.07-2.31-0.07h0ZM34,56a2,2,0,0,1-2-2V46a2,2,0,0,1,2-2h8a2,2,0,0,0,2-2V34a2,2,0,0,1,2-2h8a2,2,0,0,1,2,2v8a2,2,0,0,0,2,2h8a2,2,0,0,1,2,2v8a2,2,0,0,1-2,2H58a2,2,0,0,0-2,2v8a2,2,0,0,1-2,2H46a2,2,0,0,1-2-2V58a2,2,0,0,0-2-2H34Z"/>
      <path class="cls-2" d="M52.31,14.58A35.49,35.49,0,1,0,85.42,47.69,35.5,35.5,0,0,0,52.31,14.58ZM66,56H58a2,2,0,0,0-2,2v8a2,2,0,0,1-2,2H46a2,2,0,0,1-2-2V58a2,2,0,0,0-2-2H34a2,2,0,0,1-2-2V46a2,2,0,0,1,2-2h8a2,2,0,0,0,2-2V34a2,2,0,0,1,2-2h8a2,2,0,0,1,2,2v8a2,2,0,0,0,2,2h8a2,2,0,0,1,2,2v8A2,2,0,0,1,66,56Z"/>
    </g>
    <rect class="cls-3" width="100" height="100"/>
  </g>
</svg>
