<svg id="Base" xmlns="http://www.w3.org/2000/svg" viewBox="0 0 100 100">
  <defs>
    <style>
      .cls-1 {
        fill: #fff;
      }

      .cls-2, .cls-3 {
        fill: none;
      }

      .cls-2 {
        stroke: #000;
        stroke-miterlimit: 10;
        stroke-width: 3px;
      }
    </style>
  </defs>
  <title>zoom_out_btn</title>
  <g>
    <g id="zoom_out" data-name="zoom out">
      <path class="cls-1" d="M50,18.51c0.68,0,1.37,0,2.05.07A31.49,31.49,0,0,1,50,81.49c-0.68,0-1.37,0-2.05-.07A31.49,31.49,0,0,1,50,18.51M34,60.91H66a6,6,0,0,0,6-6v-8a6,6,0,0,0-6-6H34a6,6,0,0,0-6,6v8a6,6,0,0,0,6,6m16-46.4a35.49,35.49,0,0,0-2.31,70.91c0.77,0,1.54.07,2.31,0.07a35.49,35.49,0,0,0,2.31-70.91c-0.77,0-1.54-.07-2.31-0.07h0ZM34,56.91a2,2,0,0,1-2-2v-8a2,2,0,0,1,2-2H66a2,2,0,0,1,2,2v8a2,2,0,0,1-2,2H34Z"/>
      <path class="cls-2" d="M52.31,14.58A35.49,35.49,0,1,0,85.42,47.69,35.5,35.5,0,0,0,52.31,14.58ZM66,56.91H34a2,2,0,0,1-2-2v-8a2,2,0,0,1,2-2H66a2,2,0,0,1,2,2v8A2,2,0,0,1,66,56.91Z"/>
    </g>
    <rect class="cls-3" width="100" height="100"/>
  </g>
</svg>
